# xmcd
#
# Track frame offsets:
#	150
#	13062
#	24618
#	38552
#	52963
#	65388
#	76791
#	90085
#	100368
#	113487
#	125214
#	136864
#	149393
#	161159
#	173730
#	185752
#
# Disc length: 2631 seconds
# Revision: 0
# Processed by: cddbd v1.5.2PL0 Copyright (c) Steve Scherf et al.
# Submitted via: dBpowerAMP V12.0
#
DISCID=cc0a4510
DTITLE=BB King - The Blues
DYEAR=1958
DGENRE=Blues
TTITLE0=Why do things happen to me
TTITLE1=Ruby Lee
TTITLE2=When my heart beats like a hammer
TTITLE3=Past Day
TTITLE4=Boogie Woogie Woman
TTITLE5=Early in the morning
TTITLE6=I want to get married
TTITLE7=That aint the way to do it
TTITLE8=Troubles Troubles Troubles
TTITLE9=Dont you want a man like me
TTITLE10=You know I go for you
TTITLE11=What can i do
TTITLE12=You ve been an Angel
TTITLE13=Be careful with a fool
TTITLE14=Dont look now but you got the blues
TTITLE15=Days of old
EXTD=
EXTT0=
EXTT1=
EXTT2=
EXTT3=
EXTT4=
EXTT5=
EXTT6=
EXTT7=
EXTT8=
EXTT9=
EXTT10=
EXTT11=
EXTT12=
EXTT13=
EXTT14=
EXTT15=
PLAYORDER=
